#!OML:ASF E:\Style6\Style6.ASF
:FULLY-SPECIFIED
:DEGREES
2516
root 0.400789 17.6948 -1.25429 31.9203 -11.7992 -1.75301
lowerback 30.4807 -0.844185 3.51858
upperback 14.037 -0.279301 1.49597
thorax -0.825285 -0.116997 -0.282124
lowerneck -9.33735 -0.545527 3.5131
upperneck -11.6314 -1.50501 -5.46905
head -2.2021 -0.857207 -2.38975
rclavicle -4.57205e-015 -2.43511e-014
rhumerus 30.349 19.9539 -55.6155
rradius 105.775
rwrist 12.2979
rhand -25.9219 6.51893
rfingers 7.12502
rthumb 0.6212 -23.4599
lclavicle -4.57205e-015 -2.43511e-014
lhumerus 27.9884 -17.6741 70.8601
lradius 122.463
lwrist -3.11934
lhand 13.5996 30.472
lfingers 7.12502
lthumb 38.5319 56.1245
rfemur -54.0798 9.74155 13.588
rtibia 25.1051
rfoot 1.11242 -14.2701
rtoes -5.54235
lfemur -51.6907 0.167346 -15.068
ltibia 34.0338
lfoot -4.45273 17.7216
ltoes -21.5827
2517
root 0.404131 17.6837 -1.25707 31.8066 -11.5987 -2.2135
lowerback 30.6011 -0.88127 3.96136
upperback 14.0651 -0.205194 1.63714
thorax -0.837013 -0.0688103 -0.400519
lowerneck -9.40822 -0.579793 3.32444
upperneck -11.4606 -1.53462 -5.51334
head -2.13262 -0.865226 -2.36926
rclavicle -2.78299e-015 3.926e-015
rhumerus 30.1483 20.1322 -55.1833
rradius 105.643
rwrist 11.4508
rhand -17.6662 4.1544
rfingers 7.12502
rthumb 8.59244 -25.6508
lclavicle -2.78299e-015 3.926e-015
lhumerus 28.1528 -16.4693 71.9537
lradius 122.974
lwrist -4.567
lhand 9.65916 28.1457
lfingers 7.12502
lthumb 34.803 54.7475
rfemur -53.9104 9.88745 14.1238
rtibia 25.1957
rfoot 0.917972 -14.3201
rtoes -4.64676
lfemur -51.7101 0.457054 -14.6687
ltibia 34.3565
lfoot -4.37827 17.4895
ltoes -22.3614
2518
root 0.407661 17.6768 -1.25954 31.6805 -11.4663 -2.38372
lowerback 30.6722 -0.914839 4.22107
upperback 14.0613 -0.174261 1.701
thorax -0.867233 -0.0455646 -0.487043
lowerneck -9.48157 -0.582733 3.27031
upperneck -11.2323 -1.53626 -5.67427
head -2.0456 -0.863268 -2.41215
rclavicle 2.06736e-014 1.23743e-014
rhumerus 29.8345 20.0377 -55.1677
rradius 105.858
rwrist 9.44502
rhand -8.06747 2.1683
rfingers 7.12502
rthumb 17.8439 -27.0331
lclavicle 2.06736e-014 1.23743e-014
lhumerus 28.3026 -15.6428 72.7231
lradius 123.077
lwrist -5.95791
lhand 4.32016 26.1295
lfingers 7.12502
lthumb 29.7213 53.7668
rfemur -53.7975 9.91003 14.35
rtibia 25.3038
rfoot 0.673093 -14.3482
rtoes -3.63912
lfemur -51.7336 0.622179 -14.5658
ltibia 34.6233
lfoot -4.44492 17.2848
ltoes -22.3815
2519
root 0.412193 17.674 -1.26196 31.5532 -11.4576 -2.21166
lowerback 30.6358 -0.937176 4.23054
upperback 14.0451 -0.201284 1.64096
thorax -0.871059 -0.0545022 -0.550886
lowerneck -9.46954 -0.573199 3.40475
upperneck -11.0836 -1.54424 -5.94051
head -2.00381 -0.869183 -2.52604
rclavicle -3.57812e-014 -3.99557e-014
rhumerus 29.6856 19.7913 -55.3461
rradius 105.766
rwrist 6.87323
rhand 0.399848 0.76832
rfingers 7.12502
rthumb 25.9733 -27.4768
lclavicle -3.57812e-014 -3.99557e-014
lhumerus 28.4638 -15.3247 72.9998
lradius 122.721
lwrist -7.50031
lhand -2.27705 24.472
lfingers 7.12502
lthumb 23.4076 53.0684
rfemur -53.7761 9.77214 14.2276
rtibia 25.466
rfoot 0.715234 -14.2483
rtoes -4.61592
lfemur -51.768 0.695054 -14.8562
ltibia 34.8074
lfoot -4.49953 17.0884
ltoes -22.3173
2520
root 0.417223 17.671 -1.26618 31.4096 -11.5152 -1.93419
lowerback 30.607 -0.932043 4.16088
upperback 14.0049 -0.215083 1.53289
thorax -0.906851 -0.0588041 -0.626485
lowerneck -9.33134 -0.614666 3.51489
upperneck -11.0265 -1.61633 -6.13553
head -2.0162 -0.905095 -2.6128
rclavicle -2.127e-014 -1.24737e-014
rhumerus 29.525 19.5535 -55.6149
rradius 105.415
rwrist 4.52852
rhand 5.87709 0.122308
rfingers 7.12502
rthumb 31.2062 -27.2397
lclavicle -2.127e-014 -1.24737e-014
lhumerus 28.6854 -15.3424 72.9215
lradius 121.78
lwrist -9.90946
lhand -8.27296 22.4788
lfingers 7.12502
lthumb 17.6462 51.698
rfemur -53.8233 9.64588 13.9441
rtibia 25.717
rfoot 0.674283 -14.1576
rtoes -5.31823
lfemur -51.7324 0.785646 -15.2908
ltibia 34.8751
lfoot -4.47014 16.8443
ltoes -22.5635
2521
root 0.422324 17.6678 -1.27031 31.3223 -11.568 -1.66
lowerback 30.909 -0.983591 4.12736
upperback 13.7667 -0.264832 1.36303
thorax -1.31647 -0.0833646 -0.77787
lowerneck -9.50104 -0.633491 3.55644
upperneck -10.6546 -1.62945 -6.13647
head -1.86508 -0.917914 -2.61859
rclavicle 2.98177e-014 1.27719e-014
rhumerus 29.1755 19.6041 -56.0212
rradius 105.134
rwrist 2.97873
rhand 8.54711 0.080959
rfingers 7.12502
rthumb 33.7471 -26.7586
lclavicle 2.98177e-014 1.27719e-014
lhumerus 28.6652 -15.6531 72.5575
lradius 120.493
lwrist -13.5929
lhand -13.1125 20.5002
lfingers 7.12502
lthumb 12.9848 50.0761
rfemur -53.9388 9.52866 13.6473
rtibia 25.9779
rfoot 0.683235 -14.0304
rtoes -6.88843
lfemur -51.7222 0.843308 -15.6955
ltibia 34.8778
lfoot -4.57935 16.6248
ltoes -22.0181
2522
root 0.426106 17.667 -1.27283 31.2876 -11.5923 -1.48
lowerback 30.7935 -0.992548 4.00289
upperback 13.7384 -0.31165 1.33467
thorax -1.3022 -0.108991 -0.7245
lowerneck -9.46603 -0.653963 3.43629
upperneck -10.6187 -1.64274 -6.10297
head -1.85788 -0.919969 -2.58476
rclavicle 1.94809e-014 2.19657e-014
rhumerus 28.9988 19.7276 -56.2396
rradius 105.216
rwrist 2.6273
rhand 9.37409 -0.128921
rfingers 7.12502
rthumb 34.5324 -26.7929
lclavicle 1.94809e-014 2.19657e-014
lhumerus 28.8724 -15.7919 72.2288
lradius 119.208
lwrist -18.4014
lhand -15.6249 19.476
lfingers 7.12502
lthumb 10.562 49.1906
rfemur -54.0478 9.46183 13.4365
rtibia 26.165
rfoot 0.671734 -13.9927
rtoes -7.8042
lfemur -51.7293 0.84564 -15.9338
ltibia 34.853
lfoot -4.73815 16.4941
ltoes -20.9398
2523
root 0.429805 17.6683 -1.27491 31.2669 -11.6174 -1.32354
lowerback 30.7065 -0.982724 3.86653
upperback 13.7017 -0.33585 1.3241
thorax -1.30905 -0.125445 -0.651424
lowerneck -9.48397 -0.673832 3.42253
upperneck -10.5982 -1.66951 -6.11801
head -1.84955 -0.933417 -2.58761
rclavicle 7.7526e-015 -3.06625e-014
rhumerus 28.6158 19.8251 -56.6629
rradius 105.749
rwrist 3.31108
rhand 5.48296 0.754241
rfingers 7.12502
rthumb 30.8305 -26.6794
lclavicle 7.7526e-015 -3.06625e-014
lhumerus 29.1838 -15.6747 71.9183
lradius 118.24
lwrist -23.5463
lhand -14.5433 19.6642
lfingers 7.12502
lthumb 11.6052 49.3229
rfemur -54.1114 9.3982 13.2528
rtibia 26.2645
rfoot 0.654838 -13.9921
rtoes -7.91713
lfemur -51.7303 0.774043 -16.0952
ltibia 34.8246
lfoot -4.89616 16.4774
ltoes -19.9117
2524
root 0.431376 17.671 -1.27726 31.2508 -11.6217 -1.2466
lowerback 30.6285 -0.940538 3.77171
upperback 13.7004 -0.310867 1.32988
thorax -1.27659 -0.116611 -0.599002
lowerneck -9.54383 -0.691313 3.49088
upperneck -10.6967 -1.70448 -6.0944
head -1.87461 -0.954805 -2.59361
rclavicle -1.74931e-014 4.60683e-014
rhumerus 28.209 19.7044 -57.2779
rradius 106.491
rwrist 4.25337
rhand 1.14111 0.453461
rfingers 7.12502
rthumb 26.6829 -27.6856
lclavicle -1.74931e-014 4.60683e-014
lhumerus 29.4887 -15.5578 71.5636
lradius 117.888
lwrist -27.9693
lhand -9.13571 21.3375
lfingers 7.12502
lthumb 16.8158 50.6294
rfemur -54.0998 9.40596 13.1307
rtibia 26.2386
rfoot 0.69646 -14.0149
rtoes -8.41101
lfemur -51.7418 0.70219 -16.1533
ltibia 34.8255
lfoot -4.90524 16.5246
ltoes -19.3922
2525
root 0.43046 17.6719 -1.28088 31.2187 -11.6108 -1.23745
lowerback 30.6427 -0.90376 3.63579
upperback 13.7152 -0.297727 1.37533
thorax -1.26663 -0.117777 -0.475041
lowerneck -9.62768 -0.666422 3.46699
upperneck -10.8907 -1.67634 -6.02376
head -1.92209 -0.941136 -2.56653
rclavicle -1.66979e-014 1.37658e-014
rhumerus 27.9652 19.5319 -58.0522
rradius 107.442
rwrist 4.61827
rhand -3.73766 0.225483
rfingers 7.12502
rthumb 22.0059 -28.5426
lclavicle -1.66979e-014 1.37658e-014
lhumerus 29.7694 -16.1569 70.5997
lradius 117.102
lwrist -27.3383
lhand -6.03871 23.0718
lfingers 7.12502
lthumb 19.7951 52.0838
rfemur -54.0125 9.48983 13.0617
rtibia 26.0927
rfoot 0.68172 -14.1532
rtoes -7.91942
lfemur -51.7652 0.73236 -16.1753
ltibia 34.8784
lfoot -4.82714 16.4613
ltoes -19.4998
2526
root 0.429997 17.669 -1.28358 31.2226 -11.5597 -1.40191
lowerback 30.7514 -0.876773 3.63274
upperback 13.675 -0.253908 1.48019
thorax -1.35858 -0.103212 -0.370006
lowerneck -9.54415 -0.628502 3.48464
upperneck -11.1895 -1.64279 -6.07054
head -2.03478 -0.921353 -2.5874
rclavicle 5.36719e-015 1.18277e-014
rhumerus 27.6936 19.1835 -59.0092
rradius 108.69
rwrist 4.29332
rhand -8.52512 0.613764
rfingers 7.12502
rthumb 17.4035 -28.6271
lclavicle 5.36719e-015 1.18277e-014
lhumerus 29.9329 -16.7165 69.5779
lradius 116.505
lwrist -24.5989
lhand -0.86667 25.5836
lfingers 7.12502
lthumb 24.76 54.001
rfemur -53.9412 9.69699 13.1144
rtibia 25.8964
rfoot 0.77353 -14.3836
rtoes -8.03033
lfemur -51.8106 0.814612 -16.01
ltibia 34.9604
lfoot -4.92258 16.4306
ltoes -18.9508
2527
root 0.432175 17.6669 -1.28341 31.3512 -11.5137 -1.64455
lowerback 30.7419 -0.846459 3.72874
upperback 13.5899 -0.182592 1.62032
thorax -1.44842 -0.0728266 -0.291871
lowerneck -9.35366 -0.631086 3.4473
upperneck -11.4303 -1.65599 -6.12999
head -2.14877 -0.921232 -2.60252
rclavicle -3.57812e-015 4.32357e-014
rhumerus 27.5593 18.5238 -60.0679
rradius 109.805
rwrist 4.30272
rhand -12.9186 1.57458
rfingers 7.12502
rthumb 13.1717 -27.9894
lclavicle -3.57812e-015 4.32357e-014
lhumerus 29.9248 -17.3876 68.5595
lradius 115.706
lwrist -19.9284
lhand 4.08709 28.3012
lfingers 7.12502
lthumb 29.4988 55.9781
rfemur -53.9754 9.94419 13.1964
rtibia 25.6938
rfoot 1.07901 -14.5547
rtoes -9.65466
lfemur -51.973 0.87227 -15.7473
ltibia 35.0484
lfoot -4.87916 16.524
ltoes -19.0658
